<svg width="48" height="28" viewBox="0 0 48 28" fill="none" xmlns="http://www.w3.org/2000/svg">
<g id="Bear">
<path id="Path 3582" d="M34.1286 14.1055C34.6809 18.4399 35.1935 22.5093 35.7257 26.5744C35.7887 27.0614 35.6878 27.2332 35.1424 27.2605C31.8581 27.4237 31.86 27.4367 30.6728 24.446C30.1784 23.2016 29.6967 21.9522 29.1703 20.7202C29.0544 20.5177 29.0116 20.2826 29.049 20.0531C29.0863 19.8237 29.2015 19.6134 29.3758 19.4566C30.9294 17.7593 32.4426 16.0162 34.1286 14.1055Z" fill="#00A587"/>
<path id="Path 3583" d="M14.8243 17.7382C15.2947 20.1241 15.7587 22.3666 16.1673 24.6191C16.2934 25.3164 16.8609 26.2022 16.3754 26.6737C15.9567 27.0788 15.0274 26.5056 14.313 26.5316C12.4152 26.6024 11.5318 25.7252 11.2235 23.8834C11.0426 22.8021 10.9625 22.0534 11.8685 21.2159C12.9261 20.1181 13.9133 18.9566 14.8243 17.7382Z" fill="#00A587"/>
<path id="Path 3584" d="M20.1831 22.09C20.1831 20.75 20.1623 19.4101 20.1932 18.0707C20.2052 17.5447 20.0564 17.3673 19.4883 17.3487C15.6128 17.2225 11.7381 17.0695 7.86428 16.8896C7.25584 16.8617 7.01562 17.0317 6.88637 17.6235C6.28865 20.3642 5.61021 23.0887 5.02636 25.8325C4.86243 26.603 4.56358 26.8871 3.74455 26.7996C2.83578 26.7069 1.9209 26.6862 1.00876 26.7376C0.321504 26.7717 0.1891 26.4895 0.199188 25.9007C0.258456 21.7854 0.3461 17.67 0.305748 13.5559C0.298304 12.2899 0.72803 11.0589 1.52453 10.0646C3.66826 7.13343 5.73317 4.14957 7.81006 1.17315C7.92208 0.969345 8.09838 0.806863 8.3124 0.710193C8.52642 0.613524 8.76656 0.587892 8.99667 0.637165C16.7406 1.4523 24.4874 2.242 32.2372 3.00627C32.7219 3.06343 33.1848 3.23753 33.5846 3.51309C38.1961 6.46159 42.7995 9.42064 47.4343 12.3332C48.1279 12.7674 48.1468 13.0155 47.4804 13.4082C47.3369 13.4845 47.2087 13.5858 47.1021 13.7072C45.7673 15.4039 44.2017 15.3276 42.3102 14.5757C40.024 13.6694 37.6129 13.0683 35.2687 12.2978C35.0456 12.2088 34.8037 12.1751 34.5642 12.1997C34.3248 12.2242 34.0951 12.3063 33.8954 12.4386C31.7391 13.7562 29.5729 15.0577 27.3968 16.3431C27.2008 16.4464 27.0334 16.5952 26.9091 16.7766C26.7848 16.958 26.7074 17.1665 26.6837 17.384C26.2064 20.2128 25.6604 23.0292 25.2215 25.8654C25.0954 26.678 24.801 26.9355 23.9801 26.879C22.9375 26.8183 21.8923 26.8167 20.8496 26.8741C20.2311 26.9014 20.0728 26.688 20.093 26.1079C20.1333 24.7686 20.1056 23.4274 20.1056 22.0875L20.1831 22.09Z" fill="#00A587"/>
</g>
</svg>
