<svg xmlns="http://www.w3.org/2000/svg" width="16" height="16" viewBox="0 0 16 16" fill="none">
  <g clip-path="url(#clip0_83_41)">
    <path d="M12.3 5.43L13.4195 5.8778L13.7115 5.99462L14.1059 6.15236L13.2905 7.09821L13.0742 7.01167C13.042 6.81826 12.9933 6.63442 12.9297 6.45986C12.9024 6.38495 12.8723 6.31175 12.8396 6.24024C12.7029 5.94117 12.52 5.67162 12.3 5.43ZM12.3 5.43L14.54 3.39C14.3515 3.12305 14.1471 2.86817 13.9282 2.62673C13.636 2.3045 13.3178 2.00623 12.977 1.73518C12.914 1.68503 12.8502 1.63581 12.7856 1.58755L12.7008 1.84567C12.7292 1.75936 12.7574 1.67332 12.7856 1.58753C12.2446 1.18329 11.6508 0.845911 11.0163 0.587614L10.4041 2.76437L10.02 4.13M12.3 5.43C12.38 5.23 12.66 4.41 12.22 3.31C12.22 3.31 11.55 3.09 10.02 4.13M10.02 4.13L9.53019 3.40942L9.34159 3.97524C9.57142 4.01601 9.79811 4.0676 10.02 4.13ZM6.02 4.13L6.47774 3.45005L6.63757 3.92653L6.65645 3.98281C6.63826 3.98614 6.6201 3.98955 6.60195 3.99302C6.40512 4.03068 6.21078 4.07634 6.02 4.13ZM6.02 4.13L5.63592 2.76437L5.01962 0.573095C4.56169 0.756912 4.12473 0.981842 3.7133 1.24332C3.56123 1.33997 3.41264 1.44161 3.26778 1.54802C3.2998 1.65021 3.33191 1.75275 3.36416 1.85567M6.02 4.13C5.04263 3.47203 4.4162 3.32007 4.09118 3.29614C3.90741 3.2826 3.82 3.31 3.82 3.31M3.36416 1.85567L3.26774 1.54804C3.18952 1.6055 3.11238 1.66434 3.03636 1.72454C2.79922 1.91233 2.57298 2.11328 2.35875 2.3263L2.36474 2.7279L2.38668 4.19751L3.74 5.43M3.36416 1.85567L3.82 3.31M3.36416 1.85567C3.51363 2.33258 3.66558 2.81732 3.82 3.31M3.74 5.43L2.92548 5.75581L3.17464 6.30159C3.31383 5.97798 3.50583 5.68712 3.74 5.43ZM3.74 5.43C3.66 5.23 3.38 4.41 3.82 3.31M2.38002 4.19145L2.09126 3.92847L1.69887 3.06895C1.82117 2.91287 1.94914 2.76144 2.08248 2.61499C2.16957 2.51933 2.25896 2.42579 2.35055 2.33446L2.35674 2.7247L2.38002 4.19145ZM7.78786 1.77932L7.7454 1.56702L7.98676 1.2085L7.9349 1.50485L7.84067 2.04333L7.78786 1.77932Z" fill="#1B1F23" stroke="#09090B" stroke-width="64"/>
  </g>
  <defs>
    <clipPath id="clip0_83_41">
      <rect width="16" height="16" fill="white"/>
    </clipPath>
  </defs>
</svg>