<svg width="37" height="37" viewBox="0 0 37 37" fill="none" xmlns="http://www.w3.org/2000/svg">
<rect width="37" height="37" rx="18.5" fill="url(#paint0_linear_93_60)"/>
<path d="M24.045 18.5697C24.3193 20.7227 24.574 22.7442 24.8383 24.7635C24.8696 25.0054 24.8195 25.0908 24.5486 25.1043C22.9171 25.1854 22.9181 25.1918 22.3283 23.7063C22.0828 23.0881 21.8435 22.4675 21.582 21.8555C21.5244 21.7549 21.5032 21.6381 21.5217 21.5241C21.5403 21.4101 21.5975 21.3057 21.6841 21.2278C22.4558 20.3847 23.2075 19.5188 24.045 18.5697Z" fill="white"/>
<path d="M14.4558 20.3742C14.6894 21.5594 14.9199 22.6733 15.1229 23.7922C15.1855 24.1386 15.4674 24.5786 15.2262 24.8128C15.0183 25.014 14.5566 24.7293 14.2017 24.7422C13.259 24.7774 12.8202 24.3416 12.6671 23.4267C12.5772 22.8896 12.5374 22.5177 12.9875 22.1017C13.5128 21.5564 14.0032 20.9794 14.4558 20.3742V20.3742Z" fill="white"/>
<path d="M17.1177 22.5359C17.1177 21.8703 17.1074 21.2047 17.1227 20.5394C17.1287 20.2781 17.0548 20.1899 16.7726 20.1807C14.8474 20.118 12.9227 20.042 10.9984 19.9527C10.6962 19.9388 10.5769 20.0232 10.5127 20.3172C10.2158 21.6786 9.87874 23.032 9.58872 24.395C9.50729 24.7777 9.35884 24.9188 8.95199 24.8754C8.50057 24.8293 8.04611 24.819 7.59302 24.8446C7.25163 24.8615 7.18586 24.7213 7.19087 24.4289C7.22031 22.3846 7.26385 20.3403 7.2438 18.2967C7.24011 17.6678 7.45357 17.0563 7.84922 16.5624C8.9141 15.1064 9.93982 13.6242 10.9715 12.1457C11.0271 12.0444 11.1147 11.9637 11.221 11.9157C11.3273 11.8677 11.4466 11.8549 11.5609 11.8794C15.4076 12.2843 19.2558 12.6766 23.1054 13.0562C23.3462 13.0846 23.5761 13.1711 23.7748 13.308C26.0655 14.7726 28.3522 16.2425 30.6545 17.6893C30.999 17.905 31.0084 18.0283 30.6773 18.2233C30.6061 18.2612 30.5424 18.3115 30.4894 18.3718C29.8264 19.2146 29.0487 19.1767 28.1091 18.8033C26.9734 18.3531 25.7758 18.0545 24.6113 17.6717C24.5005 17.6275 24.3803 17.6108 24.2614 17.623C24.1424 17.6352 24.0283 17.6759 23.9292 17.7417C22.858 18.3962 21.782 19.0427 20.701 19.6812C20.6037 19.7325 20.5205 19.8064 20.4588 19.8965C20.397 19.9866 20.3586 20.0902 20.3468 20.1983C20.1097 21.6034 19.8385 23.0024 19.6205 24.4113C19.5578 24.815 19.4116 24.9429 19.0038 24.9148C18.4859 24.8847 17.9667 24.8839 17.4488 24.9123C17.1415 24.9259 17.0629 24.8199 17.0729 24.5318C17.093 23.8665 17.0792 23.2003 17.0792 22.5347L17.1177 22.5359Z" fill="white"/>
<defs>
<linearGradient id="paint0_linear_93_60" x1="18.5" y1="0" x2="18.5" y2="37" gradientUnits="userSpaceOnUse">
<stop stop-color="#008970"/>
<stop offset="1" stop-color="#007963"/>
</linearGradient>
</defs>
</svg>
