<svg width="16" height="16" viewBox="0 0 16 16" fill="none" xmlns="http://www.w3.org/2000/svg">
<path d="M13.3333 5.99992L12.0033 13.5639C11.9491 13.8728 11.7877 14.1527 11.5475 14.3544C11.3072 14.5561 11.0036 14.6666 10.69 14.6666H5.31C4.99636 14.6666 4.69275 14.5561 4.45255 14.3544C4.21235 14.1527 4.05093 13.8728 3.99667 13.5639L2.66667 5.99992M14 3.99992H10.25M10.25 3.99992V2.66659C10.25 2.31296 10.1095 1.97382 9.85948 1.72378C9.60943 1.47373 9.27029 1.33325 8.91667 1.33325H7.08333C6.72971 1.33325 6.39057 1.47373 6.14052 1.72378C5.89048 1.97382 5.75 2.31296 5.75 2.66659V3.99992M10.25 3.99992H5.75M2 3.99992H5.75" stroke="#DC2626" stroke-linecap="round" stroke-linejoin="round"/>
</svg>
